<svg width="6" height="27" viewBox="0 0 6 27" fill="none" xmlns="http://www.w3.org/2000/svg">
    <path d="M5.99756 2.5C5.99756 3.88071 4.87827 5 3.49756 5C2.11685 5 0.997559 3.88071 0.997559 2.5C0.997559 1.11929 2.11685 0 3.49756 0C4.87827 0 5.99756 1.11929 5.99756 2.5Z" fill="black" />
    <path d="M5.99756 13.5C5.99756 14.8807 4.87827 16 3.49756 16C2.11685 16 0.997559 14.8807 0.997559 13.5C0.997559 12.1193 2.11685 11 3.49756 11C4.87827 11 5.99756 12.1193 5.99756 13.5Z" fill="black" />
    <path d="M5.99756 24.5C5.99756 25.8807 4.87827 27 3.49756 27C2.11685 27 0.997559 25.8807 0.997559 24.5C0.997559 23.1193 2.11685 22 3.49756 22C4.87827 22 5.99756 23.1193 5.99756 24.5Z" fill="black" />
</svg>
    