<svg width="32" height="22" viewBox="0 0 32 22" fill="none" xmlns="http://www.w3.org/2000/svg">
    <path fill-rule="evenodd" clip-rule="evenodd" d="M21.5 12C24.8137 12 27.5 9.31371 27.5 6C27.5 2.68629 24.8137 0 21.5 0C18.1863 0 15.5 2.68629 15.5 6C15.5 9.31371 18.1863 12 21.5 12ZM21.5 10C23.7091 10 25.5 8.20914 25.5 6C25.5 3.79086 23.7091 2 21.5 2C19.2909 2 17.5 3.79086 17.5 6C17.5 8.20914 19.2909 10 21.5 10Z" fill="white"/>
    <path d="M11.5 21C11.5 17.134 14.634 14 18.5 14H24.5C28.366 14 31.5 17.134 31.5 21V22H29.5V21C29.5 18.2386 27.2614 16 24.5 16H18.5C15.7386 16 13.5 18.2386 13.5 21V22H11.5V21Z" fill="white"/>
    <path d="M7.25 4.5C7.25 3.94772 6.80228 3.5 6.25 3.5C5.69772 3.5 5.25 3.94772 5.25 4.5V8.25H1.5C0.947715 8.25 0.5 8.69772 0.5 9.25C0.5 9.80228 0.947715 10.25 1.5 10.25H5.25V14C5.25 14.5523 5.69772 15 6.25 15C6.80228 15 7.25 14.5523 7.25 14V10.25H11C11.5523 10.25 12 9.80228 12 9.25C12 8.69771 11.5523 8.25 11 8.25H7.25V4.5Z" fill="white"/>
    </svg>
    