<svg width="200" height="178" viewBox="0 0 200 178" fill="none" xmlns="http://www.w3.org/2000/svg">
    <g clip-path="url(#clip0_11_272)">
    <path d="M80.0328 17.1694C77.596 22.093 82.1844 30.389 77.5601 32.1117L77.9411 31.6649C80.7324 27.6378 74.8981 19.1141 77.6895 15.087C78.1232 14.4963 78.4955 13.8472 78.7985 13.1534" fill="#2F2E41"/>
    <path d="M102.853 89.4024C102.933 88.9097 102.919 88.4025 102.814 87.9164C102.709 87.4303 102.514 86.9772 102.243 86.589C101.972 86.2009 101.632 85.887 101.247 85.6697C100.862 85.4523 100.44 85.3367 100.013 85.331L93.9896 64.8059L90.6557 69.7903L97.024 88.9686C97.0634 89.8117 97.3651 90.6086 97.872 91.2083C98.3788 91.8079 99.0556 92.1686 99.7741 92.2221C100.493 92.2756 101.203 92.0181 101.77 91.4984C102.338 90.9787 102.723 90.2329 102.853 89.4024L102.853 89.4024Z" fill="#FFB8B8"/>
    <path d="M76.3766 39.8469C76.3766 39.8469 76.1892 32.4171 81.8537 36.6733C87.5182 40.9296 99.8514 80.8002 99.8514 80.8002L93.7139 84.6949L79.7809 48.2088L76.3766 39.8469Z" fill="#FC8585"/>
    <path d="M93.0885 167.189L90.2599 168.607L84.2515 156.485L88.4264 154.392L93.0885 167.189Z" fill="#FFB6B6"/>
    <path d="M96.6755 172.189L94.647 173.205L93.4666 171.141L93.3576 173.852L87.9777 176.548C87.7198 176.677 87.4335 176.707 87.1604 176.632C86.8874 176.556 86.642 176.381 86.4601 176.131C86.2781 175.88 86.1691 175.568 86.149 175.24C86.129 174.912 86.1988 174.585 86.3484 174.307L89.3768 168.673L88.5495 166.402L93.1836 164.454L96.6755 172.189Z" fill="#2F2E41"/>
    <path d="M48.7478 171.301L45.6756 171.124L44.7924 157.141L49.3271 157.401L48.7478 171.301Z" fill="#FFB6B6"/>
    <path d="M50.1092 177.637L47.906 177.511L47.6144 175.048L46.5055 177.431L40.6619 177.096C40.3818 177.08 40.1134 176.959 39.8959 176.751C39.6784 176.544 39.5231 176.26 39.4528 175.941C39.3825 175.623 39.4009 175.287 39.5052 174.981C39.6094 174.676 39.7942 174.418 40.0325 174.244L44.8565 170.732L44.9593 168.265L49.8533 168.89L50.1092 177.637Z" fill="#2F2E41"/>
    <path d="M139.271 169.073C139.474 169.081 139.675 169.016 139.846 168.887C140.017 168.757 140.15 168.569 140.227 168.348C140.304 168.126 140.32 167.883 140.275 167.65C140.23 167.417 140.125 167.206 139.974 167.046C139.948 166.929 139.929 166.845 139.903 166.729C140.093 166.147 140.427 165.644 140.862 165.286C141.297 164.928 141.814 164.73 142.345 164.718C142.876 164.707 143.399 164.881 143.845 165.22C144.291 165.558 144.641 166.046 144.85 166.619C146.053 169.837 147.603 173.166 146.875 176.733C151.778 164.238 149.95 148.783 142.469 138.228C140.414 136.93 138.738 134.602 138.284 131.882C139.299 132.273 140.553 131.294 139.782 130.052C139.449 129.578 139.112 129.108 138.778 128.634C142.582 123.791 147.222 131.284 143.045 137.81C144.445 139.83 145.662 142.016 146.674 144.332C146.425 141.863 146.678 139.36 147.414 137.029C148.162 134.856 149.581 133.016 150.829 131.131C152.346 128.834 155.514 129.85 155.744 132.742C154.332 133.304 154.167 135.706 155.791 136.017C155.41 141.405 152.452 146.385 148.341 148.792C149.907 153.794 150.546 159.13 150.215 164.445C150.894 158.23 156.561 156.661 160.511 154.15C160.762 153.957 161.055 153.854 161.356 153.854C161.656 153.853 161.95 153.955 162.201 154.147C162.453 154.339 162.651 154.613 162.773 154.935C162.894 155.257 162.933 155.613 162.884 155.961C162.338 156.228 161.816 156.559 161.326 156.947C161.097 157.132 160.921 157.396 160.825 157.702C160.728 158.008 160.714 158.342 160.785 158.658C160.856 158.974 161.009 159.256 161.223 159.466C161.436 159.676 161.699 159.803 161.977 159.83C160.023 165.662 154.881 169.62 149.568 169.657C149.078 172.266 148.359 174.807 147.422 177.241L139.535 177.329C139.506 177.227 139.48 177.121 139.454 177.018C140.184 177.064 140.916 177.005 141.635 176.841C139.682 174.181 138.177 172.829 139.27 169.073L139.271 169.073Z" fill="#F2F2F2"/>
    <path d="M56.5089 80.4047C56.5089 80.4047 50.2612 100.375 50.1602 102.61C50.0593 104.845 48.2775 133.106 46.7831 134.748C45.2888 136.39 40.7202 161.848 44.275 163.839C47.8298 165.831 59.0451 162.532 59.0451 162.532L62.9466 132.46L64.2719 109.421C64.2719 109.421 68.3069 163.674 75.6252 163.514C82.9435 163.354 91.8612 160.086 91.8612 160.086L81.6181 127.23C81.6181 127.23 81.7629 88.3334 79.3887 80.4881C77.0144 72.6429 56.5089 80.4047 56.5089 80.4047Z" fill="#2F2E41"/>
    <path d="M75.0479 28.9522L66.6807 29.8512L65.3328 34.7044C65.3328 34.7044 58.3306 39.2149 59.8811 41.264C61.4316 43.3131 59.5344 57.1224 59.5344 57.1224L59.9629 68.3317C59.9629 68.3317 59.5026 76.0977 58.1251 77.887C56.7476 79.6763 53.1438 84.0639 55.6902 81.9648C64.6187 74.6045 80.2247 80.815 80.2247 80.815L77.9953 64.7985C77.9953 64.7985 83.0592 38.5756 81.0607 36.361C79.0623 34.1464 77.1768 33.8665 77.1768 33.8665L75.0479 28.9522Z" fill="#FC8585"/>
    <path d="M31.0822 79.7566C31.5026 79.6648 31.9007 79.466 32.2485 79.1742C32.5963 78.8824 32.8853 78.5047 33.0951 78.0678C33.305 77.6308 33.4307 77.1452 33.4632 76.6451C33.4958 76.145 33.4344 75.6427 33.2835 75.1734L47.3957 61.1304L42.2249 59.2996L29.3078 73.2301C28.6525 73.5796 28.1293 74.199 27.8373 74.9708C27.5453 75.7427 27.5048 76.6133 27.7235 77.4178C27.9422 78.2223 28.405 78.9047 29.024 79.3357C29.643 79.7668 30.3754 79.9166 31.0822 79.7566V79.7566Z" fill="#FFB8B8"/>
    <path d="M66.922 43.024C66.922 43.024 69.7025 36.3446 63.0461 37.4856C56.3896 38.6266 31.1471 68.9964 31.1471 68.9964L35.3714 75.5111L60.8829 48.9982L66.922 43.024Z" fill="#FC8585"/>
    <path d="M56.0821 31.6943L29.6905 71.3518C29.2339 72.0401 29.0286 72.9126 29.1196 73.7781C29.2105 74.6437 29.5903 75.4316 30.1756 75.9693C36.3045 93.4237 54.6402 106.367 76.2096 118.115C76.7963 118.651 77.5403 118.892 78.2784 118.785C79.0165 118.679 79.6883 118.233 80.1464 117.546L106.538 77.8884C106.995 77.2003 107.201 76.3276 107.11 75.4619C107.019 74.5962 106.639 73.8082 106.053 73.2709C87.9521 61.2827 72.3944 47.3933 60.0189 31.1252C59.432 30.5897 58.6881 30.3489 57.9502 30.4556C57.2123 30.5622 56.5405 31.0077 56.0821 31.6943V31.6943Z" fill="#E6E6E6"/>
    <path d="M104.686 76.9861L96.6524 89.0575C91.7452 96.387 84.5645 101.141 76.6787 102.281C68.7929 103.421 60.8429 100.854 54.5654 95.1411L32.0523 74.5297C31.7188 74.2242 31.5022 73.7761 31.4501 73.2836C31.3979 72.791 31.5145 72.2944 31.7741 71.9025L57.2764 33.5813C57.5375 33.1907 57.92 32.9376 58.34 32.8773C58.76 32.8171 59.1832 32.9547 59.5168 33.26C70.9051 50.5086 86.1493 63.9313 104.41 74.3612C104.743 74.6667 104.959 75.1146 105.011 75.6067C105.062 76.0989 104.945 76.5949 104.686 76.9861Z" fill="white"/>
    <path d="M55.5556 53.3435L50.3239 61.205C50.185 61.4133 49.9814 61.5483 49.7577 61.5805C49.534 61.6128 49.3086 61.5395 49.1309 61.3768C48.9532 61.2142 48.8379 60.9755 48.8102 60.7131C48.7826 60.4508 48.8448 60.1863 48.9833 59.9778L54.2151 52.1162C54.2838 52.0129 54.3691 51.9264 54.4663 51.8617C54.5635 51.797 54.6706 51.7555 54.7814 51.7394C54.8923 51.7233 55.0048 51.733 55.1125 51.768C55.2202 51.8029 55.3209 51.8624 55.409 51.943C55.4971 52.0236 55.5707 52.1238 55.6258 52.2379C55.6808 52.3519 55.7161 52.4776 55.7298 52.6076C55.7434 52.7377 55.735 52.8696 55.7051 52.9959C55.6752 53.1222 55.6244 53.2403 55.5556 53.3435H55.5556Z" fill="#CCCCCC"/>
    <path d="M65.3688 47.512L53.8795 64.7766C53.8108 64.8798 53.7254 64.9662 53.6282 65.0307C53.5311 65.0953 53.424 65.1367 53.3132 65.1528C53.2024 65.1688 53.09 65.159 52.9824 65.1241C52.8747 65.0891 52.7741 65.0297 52.686 64.9491C52.598 64.8685 52.5244 64.7684 52.4694 64.6544C52.4143 64.5405 52.379 64.4149 52.3653 64.2849C52.3517 64.1549 52.36 64.0231 52.3898 63.8969C52.4196 63.7706 52.4703 63.6525 52.539 63.5493L64.0283 46.2848C64.097 46.1813 64.1823 46.0947 64.2795 46.0299C64.3767 45.9652 64.4838 45.9235 64.5948 45.9074C64.7057 45.8912 64.8182 45.9009 64.926 45.9358C65.0337 45.9707 65.1345 46.0303 65.2226 46.1109C65.3108 46.1916 65.3844 46.2919 65.4395 46.406C65.4945 46.5201 65.5299 46.6458 65.5434 46.7759C65.557 46.9061 65.5486 47.0381 65.5186 47.1644C65.4887 47.2907 65.4378 47.4088 65.3688 47.512H65.3688Z" fill="#CCCCCC"/>
    <path d="M45.7734 76.3091C48.8664 76.3091 51.3737 73.3682 51.3737 69.7404C51.3737 66.1126 48.8664 63.1717 45.7734 63.1717C42.6804 63.1717 40.1731 66.1126 40.1731 69.7404C40.1731 73.3682 42.6804 76.3091 45.7734 76.3091Z" fill="#FC8585"/>
    <path d="M65.9788 61.1568L51.8676 82.3612C51.7203 82.5371 51.523 82.6432 51.3133 82.6595C51.1036 82.6757 50.8961 82.6008 50.7304 82.4491C50.5647 82.2974 50.4525 82.0795 50.4149 81.837C50.3774 81.5944 50.4174 81.3441 50.5271 81.1339L64.6383 59.9295C64.7856 59.7536 64.9829 59.6475 65.1926 59.6313C65.4023 59.615 65.6098 59.6899 65.7755 59.8416C65.9412 59.9933 66.0535 60.2112 66.091 60.4537C66.1285 60.6963 66.0886 60.9466 65.9788 61.1568Z" fill="#CCCCCC"/>
    <path d="M75.1331 56.3155L55.4373 85.9116C55.29 86.0875 55.0927 86.1937 54.883 86.2099C54.6733 86.2261 54.4658 86.1512 54.3001 85.9996C54.1344 85.8479 54.0221 85.63 53.9846 85.3874C53.9471 85.1448 53.987 84.8946 54.0968 84.6843L73.7926 55.0882C73.9399 54.9123 74.1372 54.8062 74.3469 54.7899C74.5566 54.7737 74.7641 54.8486 74.9298 55.0003C75.0954 55.152 75.2077 55.3698 75.2452 55.6124C75.2827 55.855 75.2428 56.1052 75.1331 56.3155V56.3155Z" fill="#CCCCCC"/>
    <path d="M75.0647 69.4753L60.9535 90.6796C60.8062 90.8555 60.6089 90.9616 60.3992 90.9779C60.1895 90.9941 59.982 90.9192 59.8163 90.7675C59.6507 90.6158 59.5384 90.398 59.5009 90.1554C59.4634 89.9128 59.5033 89.6625 59.613 89.4523L73.7242 68.248C73.8715 68.0721 74.0688 67.9659 74.2785 67.9497C74.4882 67.9335 74.6957 68.0083 74.8614 68.16C75.0271 68.3117 75.1394 68.5296 75.1769 68.7722C75.2144 69.0147 75.1745 69.265 75.0647 69.4753Z" fill="#CCCCCC"/>
    <path d="M93.7362 72.0902L79.625 93.2945C79.4777 93.4704 79.2804 93.5766 79.0707 93.5928C78.861 93.6091 78.6535 93.5342 78.4878 93.3825C78.3222 93.2308 78.2099 93.0129 78.1724 92.7704C78.1349 92.5278 78.1748 92.2775 78.2845 92.0673L92.3957 70.8629C92.543 70.687 92.7403 70.5809 92.95 70.5646C93.1597 70.5484 93.3672 70.6233 93.5329 70.775C93.6986 70.9266 93.8109 71.1445 93.8484 71.3871C93.8859 71.6297 93.846 71.8799 93.7362 72.0902Z" fill="#FC8585"/>
    <path d="M81.65 80.3437L61.9542 109.94C61.8069 110.116 61.6096 110.222 61.3999 110.238C61.1902 110.254 60.9827 110.179 60.817 110.028C60.6513 109.876 60.539 109.658 60.5015 109.416C60.464 109.173 60.5039 108.923 60.6137 108.712L80.3095 79.1164C80.4568 78.9405 80.6541 78.8343 80.8638 78.8181C81.0735 78.8019 81.281 78.8767 81.4467 79.0284C81.6123 79.1801 81.7246 79.398 81.7621 79.6406C81.7996 79.8831 81.7597 80.1334 81.65 80.3437V80.3437Z" fill="#CCCCCC"/>
    <path d="M61.0201 16.423C61.0195 18.0187 61.353 19.5901 61.9911 20.9993C62.6293 22.4085 63.5526 23.6124 64.68 24.5054C65.8075 25.3984 67.1046 25.953 68.4575 26.1208C69.8103 26.2885 71.1776 26.0641 72.4393 25.4674C73.701 24.8706 74.8185 23.9197 75.6938 22.6981C76.569 21.4765 77.1752 20.0216 77.4591 18.4611C77.743 16.9005 77.696 15.2821 77.3221 13.7479C76.9483 12.2137 76.2591 10.8106 75.315 9.66168L75.2751 9.61494C75.2086 9.53302 75.1421 9.45116 75.0723 9.37314C75.0719 9.37315 75.0714 9.37306 75.071 9.37286C75.0706 9.37267 75.0703 9.37238 75.0699 9.37202C75.0696 9.37165 75.0694 9.37122 75.0692 9.37074C75.0691 9.37027 75.069 9.36975 75.069 9.36924C74.9826 9.27566 74.8961 9.18208 74.8064 9.0924C73.6054 7.85746 72.1265 7.05466 70.5466 6.78011C68.9667 6.50556 67.3528 6.77091 65.8982 7.54439C64.4436 8.31786 63.2098 9.56668 62.3447 11.1413C61.4795 12.716 61.0196 14.5497 61.0201 16.423V16.423Z" fill="#2F2E41"/>
    <path d="M71.3787 26.8527C75.2276 26.8527 78.3478 23.193 78.3478 18.6785C78.3478 14.164 75.2276 10.5042 71.3787 10.5042C67.5297 10.5042 64.4095 14.164 64.4095 18.6785C64.4095 23.193 67.5297 26.8527 71.3787 26.8527Z" fill="#FFB8B8"/>
    <path d="M63.9492 20.8569C63.268 17.2562 64.2526 13.2222 66.3993 10.8184C67.479 9.63333 68.8219 8.82956 70.2736 8.49952C71.7253 8.16947 73.2269 8.32655 74.6059 8.95268C74.7812 9.03568 74.9564 9.12649 75.1284 9.22129L75.2085 9.26551V9.27923C75.224 9.29184 75.2395 9.30509 75.255 9.3185C75.2875 9.35421 75.327 9.37983 75.3701 9.39302C75.9752 9.37445 76.5769 9.50607 77.1356 9.77925C77.6943 10.0524 78.1975 10.461 78.6122 10.9782C79.6924 12.3529 80.201 14.5744 80.0451 17.2335L80.0402 17.3167L79.9798 17.3609C79.162 17.9687 78.3134 18.5175 77.4387 19.0042C74.3792 20.6915 71.5862 21.0042 68.9017 19.9588L68.8524 19.9396L67.7257 17.7248C67.4944 19.2524 67.618 24.3192 66.2907 24.5938L63.978 21.0096L63.9492 20.8569Z" fill="#2F2E41"/>
    <path d="M49.2786 27.9741C51.6502 26.5383 48.6001 21.3274 49.213 18.2807C49.8259 15.2341 54.2396 14.2542 54.5207 11.1412C54.8019 8.0283 55.4633 4.81764 57.2147 2.45553C58.3337 0.946148 59.9827 -0.168135 61.6805 0.0209251C62.2549 0.084891 62.8108 0.293317 63.3104 0.632006C63.81 0.970696 64.2414 1.4317 64.5754 1.9836C64.9094 2.53551 65.138 3.16535 65.2458 3.83024C65.3535 4.49514 65.3378 5.17945 65.1997 5.83658C65.6831 5.03322 66.934 5.20734 67.2437 6.12113C67.519 6.93349 66.9108 7.91749 66.1951 7.98936C65.2587 9.34586 64.1863 10.7855 62.7191 11.0591C62.4854 11.1221 62.2425 11.1219 62.0088 11.0587C61.7751 10.9954 61.5567 10.8707 61.3701 10.6939C61.0249 10.3051 60.9981 9.52783 61.4075 9.23729C59.5637 10.0963 58.4828 12.4346 58.2092 14.7393C57.9356 17.0441 58.3141 19.376 58.5635 21.6845C58.8129 23.993 58.9204 26.4215 58.1487 28.5652C57.2369 31.0981 55.1377 32.9134 52.8467 33.4956C50.5558 34.0778 48.116 33.5088 46.0423 32.2269C43.9687 30.9449 42.2394 28.9878 40.8268 26.7937C43.2601 28.8204 46.6267 29.5796 49.2786 27.9741Z" fill="#2F2E41"/>
    <path d="M68.0495 18.15C65.6128 23.0736 70.2011 31.3696 65.5769 33.0923L65.9578 32.6455C68.7492 28.6184 62.9149 20.0947 65.7063 16.0676C66.1399 15.4769 66.5122 14.8278 66.8153 14.134" fill="#2F2E41"/>
    <path d="M64.2746 20.7824C64.2746 20.7824 66.3391 11.7439 75.1887 9.65778C75.1986 9.65392 75.2319 9.63831 75.2751 9.61494C75.3017 9.59542 75.3349 9.57591 75.3682 9.55643C75.2685 9.49012 75.1721 9.43167 75.0723 9.37312C75.0719 9.37313 75.0714 9.37304 75.071 9.37284C75.0706 9.37265 75.0703 9.37237 75.0699 9.372C75.0696 9.37164 75.0694 9.3712 75.0692 9.37073C75.0691 9.37025 75.069 9.36974 75.069 9.36922C74.9826 9.27564 74.8961 9.18206 74.8064 9.09239L74.5537 9.1041C74.5537 9.1041 65.6742 7.45474 64.2746 20.7824Z" fill="#FD6584"/>
    <path d="M1.47603e-06 177.611C-0.000128778 177.662 0.008363 177.713 0.0249838 177.76C0.0416046 177.807 0.0660299 177.85 0.0968522 177.886C0.127674 177.923 0.164284 177.951 0.20458 177.971C0.244876 177.99 0.28806 178 0.331648 178H199.668C199.756 178 199.841 177.959 199.903 177.886C199.965 177.813 200 177.714 200 177.611C200 177.508 199.965 177.409 199.903 177.336C199.841 177.263 199.756 177.222 199.668 177.222H0.331631C0.288045 177.222 0.244865 177.232 0.204572 177.251C0.164279 177.271 0.127668 177.299 0.0968479 177.336C0.0660277 177.372 0.0416042 177.415 0.0249838 177.462C0.00836339 177.509 -0.000126918 177.56 1.47603e-06 177.611V177.611Z" fill="#CCCCCC"/>
    </g>
    <defs>
    <clipPath id="clip0_11_272">
    <rect width="200" height="178" fill="white"/>
    </clipPath>
    </defs>
    </svg>
    