<svg width="321" height="223" xmlns="http://www.w3.org/2000/svg" fill="none">
    <defs>
     <clipPath id="clip0_2_1334">
      <rect width="321" height="223" fill="white" id="svg_1"/>
     </clipPath>
    </defs>
    <g>
     <title>Layer 1</title>
     <g clip-path="url(#clip0_2_1334)" id="svg_2">
      <path d="m50.9571,224c35.3226,0 63.9569,-2.172 63.9569,-4.85c0,-2.679 -28.6343,-4.85 -63.9569,-4.85c-35.3225,0 -63.9571,2.171 -63.9571,4.85c0,2.678 28.6346,4.85 63.9571,4.85z" fill="#E6E6E6" id="svg_3"/>
      <path d="m35.8876,50.4798c11.1305,-4.727 24.9937,-1.732 38.5326,0.3466c0.1259,-2.5172 1.6531,-5.5809 0.0534,-7.337c-1.9435,-2.1336 -1.7646,-4.3754 -0.5951,-6.6302c2.9906,-5.7656 -1.2941,-11.9006 -5.6202,-17.0017c-0.9751,-1.1472 -2.2075,-2.0486 -3.5969,-2.6309c-1.3895,-0.5823 -2.897,-0.8292 -4.3999,-0.7205l-8.0139,0.5715c-1.9501,0.1391 -3.8112,0.8695 -5.3341,2.0936c-1.523,1.224 -2.6353,2.8833 -3.188,4.7557c-1.9135,2.5986 -2.9377,5.19 -2.2929,7.7678c-2.8662,1.9558 -3.3477,4.3166 -2.0598,6.978c1.0922,1.6757 1.0805,3.3069 -0.0497,4.8929c-1.4842,2.022 -2.6211,4.2766 -3.3638,6.6714l-0.0717,0.2428z" fill="#2F2E41" id="svg_4"/>
      <path d="m300.394,193.78l-226.8531,0c-2.0174,0 -3.9521,-0.8 -5.3786,-2.225c-1.4265,-1.424 -2.2279,-3.356 -2.2279,-5.37c82.2336,-9.543 162.9226,-9.543 242.0656,0c0,2.014 -0.801,3.946 -2.228,5.37c-1.426,1.425 -3.361,2.225 -5.378,2.225z" fill="#2F2E41" id="svg_5"/>
      <path d="m308,186.632l-242.0656,-0.447l28.0546,-47.134l0.134,-0.223l0,-103.8782c0,-1.2608 0.249,-2.5094 0.732,-3.6743c0.483,-1.1649 1.191,-2.2233 2.084,-3.1149c0.893,-0.8915 1.953,-1.5987 3.12,-2.0812c1.167,-0.4824 2.417,-0.7307 3.68,-0.7306l165.114,0c1.263,-0.0001 2.514,0.2482 3.68,0.7306c1.167,0.4825 2.227,1.1897 3.12,2.0812c0.893,0.8916 1.601,1.95 2.084,3.1149c0.483,1.1649 0.732,2.4135 0.732,3.6743l0,104.5922l29.531,47.09z" fill="#3F3D56" id="svg_6"/>
      <path d="m103.519,32.0503c-0.83,0.0009 -1.626,0.3307 -2.213,0.917c-0.587,0.5863 -0.918,1.3812 -0.919,2.2104l0,94.7143c0.001,0.829 0.332,1.624 0.919,2.211c0.587,0.586 1.383,0.916 2.213,0.917l166.896,0c0.83,-0.001 1.626,-0.331 2.214,-0.917c0.587,-0.587 0.917,-1.382 0.918,-2.211l0,-94.7143c-0.001,-0.8292 -0.331,-1.6241 -0.918,-2.2103c-0.588,-0.5863 -1.384,-0.9161 -2.214,-0.9171l-166.896,0z" fill="white" id="svg_7"/>
      <path d="m104.219,145.529c-0.257,0.001 -0.508,0.074 -0.724,0.212c-0.216,0.139 -0.388,0.336 -0.496,0.568l-8.644,18.764c-0.094,0.205 -0.135,0.429 -0.12,0.653c0.016,0.225 0.087,0.441 0.209,0.631c0.121,0.189 0.288,0.345 0.486,0.453c0.197,0.107 0.419,0.164 0.644,0.164l181.789,0c0.229,0 0.454,-0.058 0.654,-0.17c0.199,-0.111 0.367,-0.271 0.488,-0.466c0.12,-0.194 0.188,-0.416 0.199,-0.644c0.01,-0.228 -0.038,-0.456 -0.141,-0.66l-9.396,-18.764c-0.111,-0.223 -0.282,-0.411 -0.494,-0.542c-0.212,-0.131 -0.457,-0.2 -0.706,-0.199l-163.748,0z" fill="#2F2E41" id="svg_8"/>
      <path d="m186.296,30.4866c1.112,0 2.014,-0.9001 2.014,-2.0104c0,-1.1104 -0.902,-2.0105 -2.014,-2.0105c-1.112,0 -2.013,0.9001 -2.013,2.0105c0,1.1103 0.901,2.0104 2.013,2.0104z" fill="white" id="svg_9"/>
      <path d="m168.428,170.548c-0.295,0 -0.582,0.098 -0.816,0.277c-0.235,0.179 -0.403,0.43 -0.48,0.715l-2.169,8.042c-0.053,0.198 -0.06,0.406 -0.02,0.608c0.04,0.202 0.126,0.392 0.251,0.555c0.125,0.164 0.287,0.296 0.471,0.387c0.185,0.091 0.388,0.138 0.594,0.138l41.238,0c0.214,0 0.425,-0.051 0.615,-0.149c0.19,-0.097 0.354,-0.239 0.478,-0.413c0.125,-0.175 0.205,-0.376 0.236,-0.587c0.03,-0.212 0.009,-0.427 -0.061,-0.629l-2.788,-8.042c-0.091,-0.263 -0.262,-0.492 -0.49,-0.653c-0.227,-0.162 -0.499,-0.249 -0.778,-0.249l-36.281,0z" fill="#2F2E41" id="svg_10"/>
      <path d="m278.469,137.264l0,1.787l-184.48,0l0.139,-0.223l0,-1.564l184.341,0z" fill="#2F2E41" id="svg_11"/>
      <path d="m273.323,63.5474c17.298,0 31.321,-14.0017 31.321,-31.2737c0,-17.272 -14.023,-31.2737 -31.321,-31.2737c-17.298,0 -31.321,14.0017 -31.321,31.2737c0,17.272 14.023,31.2737 31.321,31.2737z" fill="#F2796B" id="svg_12"/>
      <path d="m286.299,45.9001l-25.951,0c-0.475,-0.0005 -0.93,-0.1889 -1.266,-0.524c-0.335,-0.335 -0.524,-0.7893 -0.524,-1.2631l0,-15.6368c0,-0.4738 0.189,-0.9281 0.525,-1.2631c0.335,-0.3351 0.79,-0.5235 1.265,-0.524l25.951,0c0.475,0.0005 0.93,0.1889 1.265,0.524c0.336,0.335 0.524,0.7893 0.525,1.2631l0,15.6368c-0.001,0.4738 -0.189,0.9281 -0.525,1.2631c-0.335,0.3351 -0.79,0.5235 -1.265,0.524zm-25.951,-17.4239l0,15.6368l25.952,0l-0.001,-15.6368l-25.951,0z" fill="white" id="svg_13"/>
      <path d="m281.377,28.4762l-16.108,0l0,-7.1483c0,-5.1775 3.388,-8.9354 8.054,-8.9354c4.667,0 8.054,3.7579 8.054,8.9354l0,7.1483zm-14.318,-1.7871l12.529,0l0,-5.3612c0,-4.2088 -2.576,-7.1483 -6.265,-7.1483c-3.688,0 -6.264,2.9396 -6.264,7.1483l0,5.3612z" fill="white" id="svg_14"/>
      <path d="m273.323,37.6349c0.989,0 1.79,-0.8001 1.79,-1.7871c0,-0.987 -0.801,-1.7871 -1.79,-1.7871c-0.988,0 -1.789,0.8001 -1.789,1.7871c0,0.987 0.801,1.7871 1.789,1.7871z" fill="white" id="svg_15"/>
      <path d="m251.459,100.8934l-128.983,0c-0.633,-0.0007 -1.241,-0.2523 -1.688,-0.6994c-0.448,-0.4471 -0.7,-1.0533 -0.701,-1.6856l0,-31.9469c0.001,-0.6323 0.253,-1.2385 0.701,-1.6856c0.447,-0.4471 1.055,-0.6986 1.688,-0.6994l128.983,0c0.633,0.0008 1.24,0.2523 1.688,0.6994c0.448,0.4471 0.699,1.0533 0.7,1.6856l0,31.9469c-0.001,0.6323 -0.252,1.2385 -0.7,1.6856c-0.448,0.4471 -1.055,0.6987 -1.688,0.6994zm-128.983,-35.7629c-0.38,0.0004 -0.744,0.1513 -1.013,0.4196c-0.269,0.2683 -0.42,0.632 -0.42,1.0114l0,31.9469c0,0.3794 0.151,0.7432 0.42,1.0114c0.269,0.2683 0.633,0.4192 1.013,0.4196l128.983,0c0.38,-0.0004 0.744,-0.1513 1.013,-0.4196c0.268,-0.2682 0.419,-0.632 0.42,-1.0114l0,-31.9469c-0.001,-0.3794 -0.152,-0.7432 -0.42,-1.0114c-0.269,-0.2683 -0.633,-0.4192 -1.013,-0.4196l-128.983,0z" fill="#E6E6E6" id="svg_16"/>
      <path d="m142.517,91.0242c5.374,0 9.73,-4.3496 9.73,-9.7151c0,-5.3655 -4.356,-9.7151 -9.73,-9.7151c-5.373,0 -9.73,4.3496 -9.73,9.7151c0,5.3655 4.357,9.7151 9.73,9.7151z" fill="#E6E6E6" id="svg_17"/>
      <path d="m164.988,74.8324c-0.213,-0.0003 -0.424,0.0413 -0.621,0.1225c-0.197,0.0813 -0.376,0.2005 -0.527,0.3509c-0.151,0.1504 -0.271,0.329 -0.352,0.5256c-0.082,0.1966 -0.124,0.4074 -0.124,0.6202c0,0.2129 0.042,0.4236 0.124,0.6202c0.081,0.1966 0.201,0.3753 0.352,0.5256c0.151,0.1504 0.33,0.2696 0.527,0.3509c0.197,0.0812 0.408,0.1228 0.621,0.1225l76.448,0c0.43,0 0.843,-0.1706 1.147,-0.4743c0.304,-0.3036 0.475,-0.7155 0.475,-1.1449c0,-0.4294 -0.171,-0.8413 -0.475,-1.1449c-0.304,-0.3037 -0.717,-0.4743 -1.147,-0.4743l-76.448,0z" fill="#E6E6E6" id="svg_18"/>
      <path d="m164.988,84.5475c-0.43,0 -0.842,0.1706 -1.146,0.4743c-0.305,0.3036 -0.475,0.7155 -0.475,1.1449c0,0.4294 0.17,0.8413 0.475,1.1449c0.304,0.3037 0.716,0.4743 1.146,0.4743l32.896,0c0.43,0 0.843,-0.1706 1.147,-0.4743c0.304,-0.3036 0.475,-0.7155 0.475,-1.1449c0,-0.4294 -0.171,-0.8413 -0.475,-1.1449c-0.304,-0.3037 -0.717,-0.4743 -1.147,-0.4743l-32.896,0z" fill="#E6E6E6" id="svg_19"/>
      <path d="m93.672,85.2025l-23.8439,12.6572l-0.3019,-10.5477c7.7824,-1.2972 15.1865,-3.5557 22.0328,-7.2326l2.494,-6.1517c0.271,-0.6703 0.713,-1.2586 1.281,-1.707c0.568,-0.4484 1.244,-0.7416 1.959,-0.8508c0.716,-0.1091 1.448,-0.0305 2.125,0.2281c0.676,0.2587 1.273,0.6885 1.733,1.2473c0.673,0.8176 1.009,1.8599 0.941,2.9157c-0.069,1.0559 -0.536,2.0463 -1.309,2.7707l-7.111,6.6708z" fill="#FFB8B8" id="svg_20"/>
      <path d="m35.4124,158.281c-0.174,-0.637 -0.2109,-1.304 -0.1084,-1.956c0.1025,-0.652 0.3422,-1.276 0.7031,-1.829l5.2378,-8.026c1.2388,-1.898 3.1397,-3.27 5.3339,-3.848c2.1942,-0.578 4.5251,-0.321 6.5406,0.72c-2.2012,3.741 -1.8944,7.023 0.7603,9.876c-4.121,2.008 -7.9298,4.601 -11.3083,7.697c-0.6168,0.42 -1.3251,0.687 -2.066,0.778c-0.7409,0.091 -1.4928,0.004 -2.1932,-0.254c-0.7004,-0.258 -1.329,-0.679 -1.8334,-1.228c-0.5044,-0.55 -0.8701,-1.211 -1.0664,-1.93z" fill="#2F2E41" id="svg_21"/>
      <path d="m94.758,147.786c-0.793,1.319 -1.912,2.413 -3.25,3.176c-1.337,0.762 -2.849,1.169 -4.389,1.181l-34.7962,0.263l-1.5091,-8.739l15.3926,-4.521l-12.9781,-9.945l14.1853,-16.575l25.7655,23.978c1.505,1.402 2.484,3.277 2.771,5.312c0.288,2.035 -0.133,4.108 -1.192,5.87z" fill="#2F2E41" id="svg_22"/>
      <path d="m46.8901,207.555l-8.1491,0c-7.3166,-50.077 -14.7643,-100.294 7.2436,-119.0375l25.9562,4.2191l-3.32,21.9994l-14.4872,16.575l-7.2435,76.244z" fill="#2F2E41" id="svg_23"/>
      <path d="m54.0534,218.899c-0.6379,0.174 -1.3054,0.211 -1.9587,0.109c-0.6532,-0.103 -1.2774,-0.342 -1.8314,-0.702l-8.8482,-1.188c-1.9013,-1.237 -3.2747,-3.135 -3.8537,-5.326c-0.579,-2.19 -0.3223,-4.518 0.7202,-6.53c3.7471,2.197 7.0341,1.891 9.8905,-0.76c2.0183,4.069 5.3437,3.821 8.5195,7.249c0.4205,0.616 0.6876,1.323 0.7789,2.063c0.0913,0.74 0.0043,1.49 -0.2538,2.19c-0.2581,0.699 -0.6798,1.327 -1.2301,1.83c-0.5502,0.504 -1.213,0.869 -1.9332,1.065z" fill="#2F2E41" id="svg_24"/>
      <path d="m66.2063,55.0664l-15.0908,-3.6164c2.5063,-5.1225 2.7127,-10.8224 1.509,-16.8762l10.2618,-0.3014c0.3215,7.5281 1.2943,14.5612 3.32,20.794z" fill="#FFB8B8" id="svg_25"/>
      <path d="m70.3537,101.81c-10.9855,7.475 -18.7476,0.256 -24.6709,-10.8816c0.8231,-6.8153 -0.5097,-14.9712 -2.978,-23.8332c-1.0977,-3.9087 -0.6879,-8.0864 1.1486,-11.7082c1.8365,-3.6218 4.9662,-6.4244 8.7711,-7.8547l12.9781,5.4245c11.0199,8.969 13.189,18.6842 9.0545,28.9307l-4.3034,19.9225z" fill="#F2796B" id="svg_26"/>
      <path d="m38.741,62.6004l-12.0726,6.3286l21.4289,12.6572l2.9817,7.3438c0.199,0.4901 0.296,1.0156 0.285,1.5444c-0.0111,0.5288 -0.1298,1.0498 -0.3491,1.5313c-0.2193,0.4814 -0.5345,0.9133 -0.9263,1.2691c-0.3919,0.3559 -0.8523,0.6284 -1.353,0.8008c-0.5693,0.196 -1.1762,0.2577 -1.7733,0.1804c-0.5972,-0.0773 -1.1683,-0.2916 -1.6686,-0.6261c-0.5004,-0.3345 -0.9164,-0.7801 -1.2154,-1.3019c-0.2991,-0.5219 -0.4731,-1.1057 -0.5085,-1.7059l-0.3015,-5.1182l-27.236,-8.9743c-0.9176,-0.3024 -1.7543,-0.8093 -2.4467,-1.4824c-0.6924,-0.673 -1.2223,-1.4946 -1.5496,-2.4024c-0.4772,-1.3233 -0.5014,-2.7672 -0.0691,-4.1057c0.4323,-1.3386 1.2969,-2.4963 2.4584,-3.2919l21.9012,-15.0026l2.4145,12.3558z" fill="#FFB8B8" id="svg_27"/>
      <path d="m50.8137,63.8059c-5.0351,-2.2033 -9.6136,0.1901 -15.3927,2.1095l-0.9054,-15.9722c5.7384,-3.0539 11.2095,-3.8772 16.2981,-1.5068l0,15.3695z" fill="#F2796B" id="svg_28"/>
      <path d="m56.8367,42.184c5.3212,0 9.6349,-4.3072 9.6349,-9.6204c0,-5.3132 -4.3137,-9.6204 -9.6349,-9.6204c-5.3212,0 -9.6349,4.3072 -9.6349,9.6204c0,5.3132 4.3137,9.6204 9.6349,9.6204z" fill="#FFB8B8" id="svg_29"/>
      <path d="m68.3632,31.3497c-9.5394,0.9329 -16.8083,-0.6248 -21.454,-5.0603l0,-3.5721l20.6444,0l0.8096,8.6324z" fill="#2F2E41" id="svg_30"/>
     </g>
    </g>
   </svg>